<svg width="22" height="22" viewBox="0 0 22 22" xmlns="http://www.w3.org/2000/svg">
    <path d="M7 10.125C6.8235 10.125 6.72715 10.1871 6.70712 10.2071C6.31661 10.5976 5.68344 10.5977 5.29291 10.2071C4.90238 9.81662 4.90236 9.18346 5.29288 8.79293C5.77285 8.31294 6.4265 8.125 7 8.125C7.57349 8.125 8.22715 8.31293 8.70713 8.79293C9.09764 9.18347 9.09762 9.81663 8.70709 10.2071C8.31655 10.5977 7.68339 10.5976 7.29287 10.2071C7.27285 10.1871 7.17651 10.125 7 10.125Z" />
    <path d="M14.7071 10.2071C14.7272 10.1871 14.8235 10.125 15 10.125C15.1765 10.125 15.2728 10.1871 15.2929 10.2071C15.6834 10.5976 16.3166 10.5977 16.7071 10.2071C17.0976 9.81663 17.0976 9.18347 16.7071 8.79293C16.2272 8.31293 15.5735 8.125 15 8.125C14.4265 8.125 13.7728 8.31294 13.2929 8.79293C12.9024 9.18346 12.9024 9.81662 13.2929 10.2071C13.6834 10.5977 14.3166 10.5976 14.7071 10.2071Z" />
    <path d="M9 12.25C9 13.0591 9.58193 13.65 10.118 14.0227L10.1072 14.0385C10.0753 14.085 10.0252 14.1544 9.95914 14.2355C9.82294 14.4027 9.63886 14.5946 9.42654 14.7433C9.21433 14.8918 9.0162 14.968 8.83515 14.9781C8.6744 14.987 8.43369 14.9503 8.1 14.7C7.65817 14.3686 7.03137 14.4582 6.7 14.9C6.36863 15.3418 6.45817 15.9686 6.9 16.3C7.56631 16.7997 8.26309 17.013 8.94609 16.975C9.60879 16.9382 10.1607 16.6707 10.5735 16.3817C10.7297 16.2724 10.8721 16.1557 11 16.0392C11.1279 16.1557 11.2703 16.2724 11.4265 16.3817C11.8393 16.6707 12.3912 16.9382 13.0539 16.975C13.7369 17.013 14.4337 16.7997 15.1 16.3C15.5418 15.9686 15.6314 15.3418 15.3 14.9C14.9686 14.4582 14.3418 14.3686 13.9 14.7C13.5663 14.9503 13.3256 14.987 13.1648 14.9781C12.9838 14.968 12.7857 14.8918 12.5735 14.7433C12.3611 14.5946 12.1771 14.4027 12.0409 14.2355C11.9748 14.1544 11.9247 14.085 11.8928 14.0385L11.882 14.0227C12.4181 13.65 13 13.0591 13 12.25C13 11.75 12.5 11.25 12 11.25C11.25 11.25 11 12 11 12C11 12 10.75 11.25 10 11.25C9.5 11.25 9 11.75 9 12.25Z" />
    <path fill-rule="evenodd" clip-rule="evenodd" d="M7.65079 1.74074C8.07093 2.10086 8.43497 2.4586 8.70893 2.74364C10.1572 2.08545 11.8428 2.08545 13.2911 2.74364C13.565 2.4586 13.9291 2.10086 14.3492 1.74074C14.8174 1.33945 15.376 0.917175 15.9743 0.590854C16.5614 0.270578 17.2639 0 18 0C18.8975 0 19.4935 0.530835 19.8281 1.12672C20.1381 1.67861 20.2721 2.34915 20.3344 2.93794C20.4493 4.02361 20.3519 5.18571 20.2883 5.75697C20.7479 6.50031 21.75 8.41323 21.75 11C21.75 17.0523 17.0523 21.75 11 21.75C4.94772 21.75 0.25 17.0523 0.25 11C0.25 8.41323 1.25211 6.50031 1.71168 5.75697C1.6481 5.18571 1.55068 4.02361 1.66555 2.93794C1.72785 2.34915 1.86193 1.67861 2.17188 1.12672C2.50654 0.530835 3.10246 0 4 0C4.7361 0 5.43855 0.270578 6.02573 0.590854C6.62398 0.917175 7.18262 1.33945 7.65079 1.74074ZM3.71532 5.6723C3.65972 5.21687 3.55257 4.1113 3.65445 3.14838C3.70648 2.65666 3.80362 2.30563 3.91569 2.10606C3.95226 2.04095 3.97986 2.01121 3.99175 2.00013L4 2C4.2639 2 4.62395 2.10442 5.06802 2.34665C5.50102 2.58283 5.94238 2.91055 6.34921 3.25926C6.7528 3.60519 7.10201 3.95412 7.35111 4.21787C7.47505 4.34911 7.57272 4.45767 7.63831 4.53212C7.67108 4.56932 7.69574 4.59789 7.71158 4.6164L7.7286 4.63642L7.73224 4.64074C8.05948 5.03286 8.62968 5.11539 9.0547 4.83205C10.2188 4.05598 11.7812 4.05598 12.9453 4.83205C13.3704 5.11547 13.941 5.03256 14.2682 4.64018L14.2714 4.63642L14.2884 4.6164C14.3043 4.59789 14.3289 4.56932 14.3617 4.53212C14.4273 4.45767 14.5249 4.34911 14.6489 4.21787C14.898 3.95412 15.2472 3.60519 15.6508 3.25926C16.0576 2.91055 16.499 2.58283 16.932 2.34665C17.3761 2.10442 17.7361 2 18 2L18.0083 2.00013C18.0201 2.01121 18.0477 2.04095 18.0843 2.10606C18.1964 2.30563 18.2935 2.65666 18.3455 3.14838C18.4474 4.1113 18.3403 5.21687 18.2847 5.6723C18.2384 6.05131 18.3351 6.41805 18.5285 6.71591C18.8274 7.1764 19.75 8.78394 19.75 11C19.75 15.9477 15.9477 19.75 11 19.75C6.05228 19.75 2.25 15.9477 2.25 11C2.25 8.78394 3.17259 7.1764 3.47155 6.71591C3.66493 6.41805 3.7616 6.05131 3.71532 5.6723ZM3.99175 2.00013L3.98527 2.00048C3.98527 2.00048 3.99148 1.99919 3.99818 1.99464C3.99818 1.99464 3.99594 1.99623 3.99175 2.00013Z" />
</svg>
