<svg width="22" height="22" viewBox="0 0 22 22" xmlns="http://www.w3.org/2000/svg">
    <path fill-rule="evenodd" clip-rule="evenodd" d="M8.70893 2.74364C8.43497 2.4586 8.07093 2.10086 7.65079 1.74074C7.18262 1.33945 6.62398 0.917175 6.02573 0.590854C5.43855 0.270578 4.7361 0 4 0C3.10246 0 2.50654 0.530835 2.17188 1.12672C1.86193 1.67861 1.72785 2.34915 1.66555 2.93794C1.55068 4.02361 1.6481 5.18571 1.71168 5.75697C1.25211 6.50031 0.25 8.41323 0.25 11C0.25 17.0523 4.94772 21.75 11 21.75C17.0523 21.75 21.75 17.0523 21.75 11C21.75 8.41323 20.7479 6.50031 20.2883 5.75696C20.3519 5.18571 20.4493 4.02361 20.3344 2.93794C20.2722 2.34915 20.1381 1.67861 19.8281 1.12672C19.4935 0.530835 18.8975 0 18 0C17.2639 0 16.5614 0.270578 15.9743 0.590854C15.376 0.917175 14.8174 1.33945 14.3492 1.74074C13.9291 2.10086 13.565 2.4586 13.2911 2.74364C11.8428 2.08545 10.1572 2.08545 8.70893 2.74364ZM10.118 14.0227C9.58193 13.65 9 13.0591 9 12.25C9 11.75 9.5 11.25 10 11.25C10.75 11.25 11 12 11 12C11 12 11.25 11.25 12 11.25C12.5 11.25 13 11.75 13 12.25C13 13.0591 12.4181 13.65 11.882 14.0227L11.8928 14.0385C11.9247 14.085 11.9748 14.1544 12.0409 14.2355C12.1771 14.4027 12.3611 14.5946 12.5735 14.7433C12.7857 14.8918 12.9838 14.968 13.1648 14.9781C13.3256 14.987 13.5663 14.9503 13.9 14.7C14.3418 14.3686 14.9686 14.4582 15.3 14.9C15.6314 15.3418 15.5418 15.9686 15.1 16.3C14.4337 16.7997 13.7369 17.013 13.0539 16.975C12.3912 16.9382 11.8393 16.6707 11.4265 16.3817C11.2703 16.2723 11.1279 16.1557 11 16.0392C10.8721 16.1557 10.7297 16.2723 10.5735 16.3817C10.1607 16.6707 9.60879 16.9382 8.94609 16.975C8.26309 17.013 7.56631 16.7997 6.9 16.3C6.45817 15.9686 6.36863 15.3418 6.7 14.9C7.03137 14.4582 7.65817 14.3686 8.1 14.7C8.43369 14.9503 8.6744 14.987 8.83515 14.9781C9.0162 14.968 9.21433 14.8918 9.42654 14.7433C9.63886 14.5946 9.82294 14.4027 9.95914 14.2355C10.0252 14.1544 10.0753 14.085 10.1072 14.0385L10.118 14.0227ZM15 10.125C14.8235 10.125 14.7272 10.1871 14.7071 10.2071C14.3166 10.5976 13.6834 10.5977 13.2929 10.2071C12.9024 9.81662 12.9024 9.18346 13.2929 8.79293C13.7728 8.31294 14.4265 8.125 15 8.125C15.5735 8.125 16.2272 8.31293 16.7071 8.79293C17.0976 9.18347 17.0976 9.81663 16.7071 10.2071C16.3166 10.5977 15.6834 10.5976 15.2929 10.2071C15.2728 10.1871 15.1765 10.125 15 10.125ZM6.70712 10.2071C6.72715 10.1871 6.8235 10.125 7 10.125C7.17651 10.125 7.27285 10.1871 7.29287 10.2071C7.68339 10.5976 8.31655 10.5977 8.70709 10.2071C9.09762 9.81663 9.09764 9.18347 8.70713 8.79293C8.22715 8.31293 7.57349 8.125 7 8.125C6.4265 8.125 5.77285 8.31294 5.29288 8.79293C4.90236 9.18346 4.90238 9.81662 5.29291 10.2071C5.68344 10.5977 6.31661 10.5976 6.70712 10.2071Z"/>
</svg>
