<svg width="24" height="20" viewBox="0 0 24 20" xmlns="http://www.w3.org/2000/svg">
    <path fill-rule="evenodd" clip-rule="evenodd" d="M5.28763 2.32377C5.94145 0.907168 7.35927 0 8.91947 0H15.0805C16.6407 0 18.0585 0.907166 18.7123 2.32377L20.4756 6.14417L22.5528 5.10557C23.0467 4.85858 23.6474 5.05881 23.8944 5.55279C24.1414 6.04676 23.9412 6.64744 23.4472 6.89443L21.9893 7.62338C22.9286 8.48749 23.4122 9.76437 23.2499 11.0632L22.5 17.0623V19C22.5 19.5523 22.0523 20 21.5 20H17.5C17.0411 20 16.6411 19.6877 16.5298 19.2425L16.2192 18H7.78075L7.47012 19.2425C7.35883 19.6877 6.95884 20 6.49997 20H2.49997C1.94769 20 1.49997 19.5523 1.49997 19V17.0623L0.750089 11.0632C0.587739 9.76437 1.07135 8.48749 2.01066 7.62338L0.552761 6.89443C0.0587828 6.64744 -0.141442 6.04676 0.105548 5.55279C0.352537 5.05881 0.95321 4.85858 1.44719 5.10557L3.52437 6.14417L5.28763 2.32377ZM5.56288 6.5H18.4371L16.8964 3.16188C16.5695 2.45358 15.8606 2 15.0805 2H8.91947C8.13937 2 7.43046 2.45358 7.10355 3.16189L5.56288 6.5ZM19.723 8.5H4.27696L3.69021 8.85205C3.01112 9.2595 2.63642 10.0293 2.73465 10.8151L3.49225 16.876C3.4974 16.9171 3.49997 16.9585 3.49997 17V18H5.7192L6.02983 16.7575C6.14112 16.3123 6.54111 16 6.99997 16H17C17.4588 16 17.8588 16.3123 17.9701 16.7575L18.2808 18H20.5V17C20.5 16.9585 20.5026 16.9171 20.5077 16.876L21.2653 10.8151C21.3635 10.0293 20.9888 9.2595 20.3097 8.85205L19.723 8.5ZM4.51358 11.3356C4.60438 10.7908 5.1196 10.4228 5.66437 10.5136L8.66437 11.0136C9.20914 11.1044 9.57716 11.6196 9.48637 12.1644C9.39557 12.7092 8.88035 13.0772 8.33558 12.9864L5.33558 12.4864C4.79081 12.3956 4.42279 11.8804 4.51358 11.3356ZM19.4864 11.3356C19.5772 11.8804 19.2091 12.3956 18.6644 12.4864L15.6644 12.9864C15.1196 13.0772 14.6044 12.7092 14.5136 12.1644C14.4228 11.6196 14.7908 11.1044 15.3356 11.0136L18.3356 10.5136C18.8803 10.4228 19.3956 10.7908 19.4864 11.3356Z" />
</svg>
