<svg width="24" height="20" viewBox="0 0 24 20" xmlns="http://www.w3.org/2000/svg">
    <path fill-rule="evenodd" clip-rule="evenodd" d="M8.91947 0C7.35927 0 5.94145 0.907168 5.28763 2.32377L3.52437 6.14417L1.44719 5.10557C0.95321 4.85858 0.352537 5.05881 0.105548 5.55279C-0.141442 6.04676 0.0587828 6.64744 0.552761 6.89443L2.01066 7.62338C1.07135 8.48749 0.587739 9.76437 0.750089 11.0632L1.49997 17.0623V19C1.49997 19.5523 1.94769 20 2.49997 20H6.49997C6.95884 20 7.35883 19.6877 7.47012 19.2425L7.78075 18H16.2192L16.5298 19.2425C16.6411 19.6877 17.0411 20 17.5 20H21.5C22.0523 20 22.5 19.5523 22.5 19V17.0623L23.2499 11.0632C23.4122 9.76437 22.9286 8.48749 21.9893 7.62338L23.4472 6.89443C23.9412 6.64744 24.1414 6.04676 23.8944 5.55279C23.6474 5.05881 23.0467 4.85858 22.5528 5.10557L20.4756 6.14417L18.7123 2.32377C18.0585 0.907166 16.6407 0 15.0805 0H8.91947ZM18.4371 6.5H5.56288L7.10355 3.16189C7.43046 2.45358 8.13937 2 8.91947 2H15.0805C15.8606 2 16.5695 2.45358 16.8964 3.16188L18.4371 6.5ZM5.66437 10.5136C5.1196 10.4228 4.60437 10.7908 4.51358 11.3356C4.42278 11.8803 4.7908 12.3956 5.33557 12.4864L8.33557 12.9864C8.88034 13.0772 9.39557 12.7091 9.48637 12.1644C9.57716 11.6196 9.20914 11.1044 8.66437 11.0136L5.66437 10.5136ZM18.6644 12.4864C19.2091 12.3956 19.5772 11.8803 19.4864 11.3356C19.3956 10.7908 18.8803 10.4228 18.3356 10.5136L15.3356 11.0136C14.7908 11.1044 14.4228 11.6196 14.5136 12.1644C14.6044 12.7091 15.1196 13.0772 15.6644 12.9864L18.6644 12.4864Z" />
</svg>
