<svg width="22" height="23" viewBox="0 0 22 23" xmlns="http://www.w3.org/2000/svg">
    <path fill-rule="evenodd" clip-rule="evenodd" d="M9.79292 0.292895C10.1834 -0.0976302 10.8166 -0.0976319 11.2071 0.292891C12.2497 1.33543 12.3815 2.68253 12.3104 3.62894C12.3129 3.62783 12.3154 3.62671 12.3179 3.6256C12.3467 3.61276 12.3762 3.59963 12.4064 3.58619C13.0249 3.31131 13.7985 3 15 3C16.7111 3 18.4983 3.57113 19.7896 4.93838C21.0958 6.32148 21.7668 8.38274 21.4951 11.0995C21.2278 13.7722 20.1689 16.5361 18.9224 18.6355C18.2981 19.6869 17.6047 20.6093 16.9043 21.2832C16.2491 21.9134 15.4093 22.5 14.5 22.5C13.2763 22.5 12.605 22.176 12.0664 21.8682C12.0363 21.851 12.0075 21.8345 11.9798 21.8186C11.5979 21.5992 11.4253 21.5 11 21.5C10.5748 21.5 10.4022 21.5992 10.0203 21.8186C9.99258 21.8345 9.96377 21.851 9.93367 21.8682C9.39511 22.176 8.72381 22.5 7.50003 22.5C6.59076 22.5 5.75094 21.9134 5.09581 21.2832C4.39537 20.6093 3.70195 19.6869 3.07768 18.6355C1.83117 16.5361 0.77227 13.7722 0.504995 11.0995C0.233311 8.38274 0.904253 6.32148 2.21052 4.93838C3.50181 3.57113 5.28895 3 7.00004 3C8.2016 3 8.9752 3.31131 9.59368 3.58619C9.62391 3.59963 9.6534 3.61276 9.68221 3.6256C9.90942 3.72682 10.0943 3.80918 10.2678 3.87061C10.2882 3.75005 10.3051 3.62065 10.3155 3.4858C10.3676 2.80772 10.2466 2.1608 9.79293 1.70711C9.4024 1.31659 9.4024 0.68342 9.79292 0.292895Z"/>
</svg>
