<svg width="22" height="22" viewBox="0 0 22 22" xmlns="http://www.w3.org/2000/svg">
    <path fill-rule="evenodd" clip-rule="evenodd" d="M11 21.75C16.9371 21.75 21.75 16.9371 21.75 11C21.75 5.06294 16.9371 0.25 11 0.25C5.06294 0.25 0.25 5.06294 0.25 11C0.25 16.9371 5.06294 21.75 11 21.75ZM11.5 6C11.5 5.44772 11.0523 5 10.5 5C9.94771 5 9.5 5.44772 9.5 6V11.5C9.5 11.7919 9.62756 12.0693 9.84921 12.2593L13.3492 15.2593C13.7685 15.6187 14.3998 15.5701 14.7593 15.1508C15.1187 14.7315 15.0701 14.1002 14.6508 13.7407L11.5 11.0401V6Z"/>
</svg>
