<svg width="18" height="24" viewBox="0 0 18 24" xmlns="http://www.w3.org/2000/svg">
<path fill-rule="evenodd" clip-rule="evenodd" d="M9 0.5C4.34772 0.5 0.5 4.34772 0.5 9C0.5 11.4244 1.70318 13.0344 2.75629 14.206C2.97122 14.4451 3.1647 14.6509 3.34132 14.8388L3.34137 14.8388C3.62861 15.1444 3.87127 15.4025 4.08913 15.6793C4.42279 16.1033 4.5 16.3427 4.5 16.5V21C4.5 22.3807 5.61929 23.5 7 23.5H11C12.3807 23.5 13.5 22.3807 13.5 21V16.5C13.5 16.3427 13.5772 16.1033 13.9109 15.6793C14.1287 15.4025 14.3714 15.1444 14.6586 14.8388L14.6586 14.8388C14.8353 14.6509 15.0288 14.4451 15.2437 14.206C16.2968 13.0344 17.5 11.4244 17.5 9C17.5 4.34771 13.6523 0.5 9 0.5ZM6.5 21V19.5H11.5V21C11.5 21.2761 11.2761 21.5 11 21.5H7C6.72386 21.5 6.5 21.2761 6.5 21ZM7 9C6.44772 9 6 9.44771 6 10C6 10.5523 6.44772 11 7 11C7.32502 11 7.5023 11.0784 7.60155 11.1446C7.70706 11.2149 7.78989 11.3158 7.85557 11.4472C7.92322 11.5825 7.96202 11.7299 7.98236 11.8519C7.99213 11.9105 7.99663 11.9572 7.99864 11.9853C7.99912 11.992 7.99944 11.9976 7.99967 12.0018C7.99983 12.0049 7.99993 12.0073 8 12.009V14.5C8 15.0523 8.44772 15.5 9 15.5C9.55228 15.5 10 15.0523 10 14.5V12.009C10.0002 12.005 10.0005 11.997 10.0014 11.9853C10.0034 11.9572 10.0079 11.9105 10.0176 11.8519C10.038 11.7299 10.0768 11.5825 10.1444 11.4472C10.2101 11.3158 10.2929 11.2149 10.3984 11.1446C10.4977 11.0784 10.675 11 11 11C11.5523 11 12 10.5523 12 10C12 9.44771 11.5523 9 11 9C10.325 9 9.75229 9.17162 9.28905 9.48045C9.18426 9.55031 9.08814 9.62513 9 9.70341C8.91186 9.62513 8.81574 9.55031 8.71095 9.48045C8.2477 9.17162 7.67498 9 7 9Z" />
</svg>
