<svg width="18" height="24" viewBox="0 0 18 24" xmlns="http://www.w3.org/2000/svg">
    <path fill-rule="evenodd" clip-rule="evenodd" d="M0.5 9C0.5 4.34772 4.34772 0.5 9 0.5C13.6523 0.5 17.5 4.34771 17.5 9C17.5 11.4244 16.2968 13.0344 15.2437 14.206C15.0288 14.4451 14.8353 14.6509 14.6586 14.8388C14.3714 15.1444 14.1287 15.4025 13.9109 15.6793C13.5772 16.1033 13.5 16.3427 13.5 16.5V21C13.5 22.3807 12.3807 23.5 11 23.5H7C5.61929 23.5 4.5 22.3807 4.5 21V16.5C4.5 16.3427 4.42279 16.1033 4.08913 15.6793C3.87127 15.4025 3.62861 15.1444 3.34137 14.8388C3.16473 14.6509 2.97124 14.4451 2.75629 14.206C1.70318 13.0344 0.5 11.4244 0.5 9ZM9 2.5C5.45228 2.5 2.5 5.45229 2.5 9C2.5 10.6756 3.29682 11.8156 4.24371 12.869C4.38733 13.0288 4.54703 13.1993 4.71088 13.3742C5.04389 13.7297 5.394 14.1034 5.66087 14.4425C6.07721 14.9717 6.5 15.6573 6.5 16.5V17.5H11.5V16.5C11.5 15.6573 11.9228 14.9717 12.3391 14.4425C12.606 14.1034 12.9561 13.7297 13.2891 13.3742C13.453 13.1993 13.6127 13.0288 13.7563 12.869C14.7032 11.8156 15.5 10.6756 15.5 9C15.5 5.45228 12.5477 2.5 9 2.5ZM11.5 19.5H6.5V21C6.5 21.2761 6.72386 21.5 7 21.5H11C11.2761 21.5 11.5 21.2761 11.5 21V19.5ZM6 10C6 9.44772 6.44772 9 7 9C7.67498 9 8.24771 9.17162 8.71095 9.48045C8.81574 9.55031 8.91186 9.62513 9 9.70341C9.08814 9.62513 9.18426 9.55031 9.28905 9.48045C9.75229 9.17162 10.325 9 11 9C11.5523 9 12 9.44772 12 10C12 10.5523 11.5523 11 11 11C10.675 11 10.4977 11.0784 10.3984 11.1446C10.2929 11.2149 10.2101 11.3158 10.1444 11.4472C10.0768 11.5825 10.038 11.7299 10.0176 11.8519C10.0079 11.9105 10.0034 11.9572 10.0014 11.9853C10.0005 11.997 10.0002 12.005 10 12.009V14.5C10 15.0523 9.55229 15.5 9 15.5C8.44772 15.5 8 15.0523 8 14.5V12.009C7.99984 12.005 7.99947 11.997 7.99863 11.9853C7.99663 11.9572 7.99213 11.9105 7.98236 11.8519C7.96202 11.7299 7.92322 11.5825 7.85557 11.4472C7.78989 11.3158 7.70706 11.2149 7.60155 11.1446C7.5023 11.0784 7.32502 11 7 11C6.44772 11 6 10.5523 6 10Z" />
</svg>
