<svg width="22" height="22" viewBox="0 0 22 22" xmlns="http://www.w3.org/2000/svg">
    <path fill-rule="evenodd" clip-rule="evenodd" d="M2.25 11C2.25 6.16751 6.16751 2.25 11 2.25C15.8325 2.25 19.75 6.16751 19.75 11C19.75 15.8325 15.8325 19.75 11 19.75C6.16751 19.75 2.25 15.8325 2.25 11ZM11 0.25C5.06294 0.25 0.25 5.06294 0.25 11C0.25 16.9371 5.06294 21.75 11 21.75C16.9371 21.75 21.75 16.9371 21.75 11C21.75 5.06294 16.9371 0.25 11 0.25ZM6.72939 12.6462C7.19909 12.3598 7.81146 12.5067 8.10041 12.9739L8.10294 12.9778C8.10717 12.9843 8.11588 12.9975 8.12903 13.0164C8.15541 13.0542 8.19923 13.1144 8.2603 13.1895C8.38327 13.3408 8.5711 13.5464 8.82158 13.7518C9.32099 14.1613 10.0418 14.55 11 14.55C11.9582 14.55 12.679 14.1613 13.1784 13.7518C13.4289 13.5464 13.6167 13.3408 13.7397 13.1895C13.8008 13.1144 13.8446 13.0542 13.871 13.0164C13.8841 12.9975 13.8928 12.9845 13.8971 12.978L13.8978 12.9768L13.899 12.9749L13.8996 12.9739C14.1886 12.5067 14.8009 12.3598 15.2706 12.6462C15.7421 12.9338 15.8913 13.5491 15.6038 14.0206L15.6028 14.0222L15.6017 14.024L15.5992 14.0281L15.5926 14.0386L15.5736 14.0683C15.5583 14.0918 15.5378 14.1227 15.5118 14.1598C15.4601 14.2341 15.3867 14.3341 15.2915 14.4512C15.102 14.6843 14.8211 14.9912 14.4466 15.2983C13.696 15.9138 12.5418 16.55 11 16.55C9.45824 16.55 8.30401 15.9138 7.55342 15.2983C7.17889 14.9912 6.89798 14.6843 6.70845 14.4512C6.61327 14.3341 6.5399 14.2341 6.48815 14.1598C6.46225 14.1227 6.44165 14.0918 6.42636 14.0683L6.40735 14.0386L6.4008 14.0281L6.39826 14.024L6.39717 14.0222L6.3962 14.0206C6.10868 13.5491 6.25785 12.9338 6.72939 12.6462ZM15.5 8.5C15.5 9.32843 14.8284 10 14 10C13.1716 10 12.5 9.32843 12.5 8.5C12.5 7.67157 13.1716 7 14 7C14.8284 7 15.5 7.67157 15.5 8.5ZM8 10C8.82843 10 9.5 9.32843 9.5 8.5C9.5 7.67157 8.82843 7 8 7C7.17157 7 6.5 7.67157 6.5 8.5C6.5 9.32843 7.17157 10 8 10Z"/>
</svg>
