<svg width="22" height="22" viewBox="0 0 22 22" xmlns="http://www.w3.org/2000/svg">
    <path fill-rule="evenodd" clip-rule="evenodd" d="M11 21.75C16.9371 21.75 21.75 16.9371 21.75 11C21.75 5.06294 16.9371 0.25 11 0.25C5.06294 0.25 0.25 5.06294 0.25 11C0.25 16.9371 5.06294 21.75 11 21.75ZM8.10041 12.9739C7.81146 12.5067 7.19909 12.3598 6.72939 12.6462C6.25785 12.9338 6.10868 13.5491 6.3962 14.0206L6.39717 14.0222L6.39826 14.024L6.4008 14.0281L6.40735 14.0386L6.42636 14.0683C6.44165 14.0918 6.46225 14.1227 6.48815 14.1598C6.5399 14.2341 6.61327 14.3341 6.70845 14.4512C6.89798 14.6843 7.17889 14.9912 7.55342 15.2983C8.30401 15.9138 9.45824 16.55 11 16.55C12.5418 16.55 13.696 15.9138 14.4466 15.2983C14.8211 14.9912 15.102 14.6843 15.2915 14.4512C15.3867 14.3341 15.4601 14.2341 15.5118 14.1598C15.5378 14.1227 15.5583 14.0918 15.5736 14.0683L15.5926 14.0386L15.5992 14.0281L15.6017 14.024L15.6028 14.0222L15.6038 14.0206C15.8913 13.5491 15.7421 12.9338 15.2706 12.6462C14.8009 12.3598 14.1886 12.5067 13.8996 12.9739L13.899 12.9749L13.8978 12.9768L13.8971 12.978C13.8928 12.9845 13.8841 12.9975 13.871 13.0164C13.8446 13.0542 13.8008 13.1144 13.7397 13.1895C13.6167 13.3408 13.4289 13.5464 13.1784 13.7518C12.679 14.1613 11.9582 14.55 11 14.55C10.0418 14.55 9.32099 14.1613 8.82158 13.7518C8.5711 13.5464 8.38327 13.3408 8.2603 13.1895C8.19923 13.1144 8.15541 13.0542 8.12903 13.0164C8.11588 12.9975 8.10717 12.9843 8.10294 12.9778L8.10041 12.9739ZM15.5 8.5C15.5 9.32843 14.8284 10 14 10C13.1716 10 12.5 9.32843 12.5 8.5C12.5 7.67157 13.1716 7 14 7C14.8284 7 15.5 7.67157 15.5 8.5ZM8 10C8.82843 10 9.5 9.32843 9.5 8.5C9.5 7.67157 8.82843 7 8 7C7.17157 7 6.5 7.67157 6.5 8.5C6.5 9.32843 7.17157 10 8 10Z"/>
</svg>
