<svg width="22" height="22" viewBox="0 0 22 22" xmlns="http://www.w3.org/2000/svg">
    <path fill-rule="evenodd" clip-rule="evenodd" d="M21.7018 9.97556C18.2582 9.70126 16.0303 8.86618 14.5821 7.4179C13.1338 5.96961 12.2987 3.74177 12.0244 0.298181C17.1437 0.782147 21.2178 4.85622 21.7018 9.97556ZM21.7057 11.9818C17.9702 11.7048 15.1294 10.7937 13.1679 8.83211C11.2063 6.87056 10.2951 4.02981 10.0182 0.294235C4.8646 0.760817 0.760772 4.86464 0.294189 10.0182C4.02976 10.2952 6.87052 11.2063 8.83207 13.1679C10.7936 15.1294 11.7048 17.9702 11.9817 21.7058C17.1353 21.2392 21.2391 17.1354 21.7057 11.9818ZM0.298139 12.0244C0.782105 17.1438 4.85617 21.2179 9.97552 21.7018C9.70121 18.2582 8.86614 16.0304 7.41785 14.5821C5.96957 13.1338 3.74173 12.2987 0.298139 12.0244Z" />
</svg>
