<svg width="22" height="22" viewBox="0 0 22 22" xmlns="http://www.w3.org/2000/svg">
    <path fill-rule="evenodd" clip-rule="evenodd" d="M11 0.25C5.06294 0.25 0.25 5.06294 0.25 11C0.25 16.9371 5.06294 21.75 11 21.75C16.9371 21.75 21.75 16.9371 21.75 11C21.75 5.06294 16.9371 0.25 11 0.25ZM2.28249 10.2408C2.66729 5.76376 6.4233 2.25 11 2.25C15.4172 2.25 19.0699 5.52312 19.6651 9.7763C19.6626 9.75838 19.66 9.74048 19.6574 9.72259C17.3421 9.3166 15.721 8.55689 14.5821 7.41794C13.4432 6.279 12.6834 4.65795 12.2775 2.34264C11.8605 2.28165 11.4339 2.25 11 2.25C10.7442 2.25 10.491 2.26104 10.2407 2.28255C10.6697 5.05441 11.5705 7.2348 13.1679 8.83216C14.7652 10.4295 16.9456 11.3303 19.7175 11.7593C19.3542 15.986 15.986 19.3542 11.7593 19.7175C11.3303 16.9457 10.4295 14.7653 8.83211 13.1679C7.23475 11.5706 5.05436 10.6697 2.28249 10.2408ZM9.72254 19.6574C9.31656 17.3421 8.55684 15.7211 7.4179 14.5821C6.27895 13.4432 4.65789 12.6835 2.34259 12.2775C2.89992 16.0874 5.91257 19.1001 9.72254 19.6574Z" />
</svg>
